<?xml version="1.0" encoding="utf-8"?>
<!-- Generator: Adobe Illustrator 16.0.0, SVG Export Plug-In . SVG Version: 6.00 Build 0)  -->
<!DOCTYPE svg PUBLIC "-//W3C//DTD SVG 1.1//EN" "http://www.w3.org/Graphics/SVG/1.1/DTD/svg11.dtd">
<svg version="1.1" id="Layer_1" xmlns="http://www.w3.org/2000/svg" xmlns:xlink="http://www.w3.org/1999/xlink" x="0px" y="0px"
	 width="141.732px" height="141.732px" viewBox="0 0 141.732 141.732" enable-background="new 0 0 141.732 141.732"
	 xml:space="preserve">
<g>
	<path d="M83.235,23.339v21.834c0,6.256-5.538,11.346-12.345,11.346s-12.344-5.09-12.344-11.346V23.339H83.235 M95.235,11.339
		H46.547v33.834c0,12.893,10.898,23.346,24.344,23.346c13.446,0,24.345-10.453,24.345-23.346V11.339L95.235,11.339z"/>
</g>
<g>
	<path d="M70.89,85.213c6.808,0,12.346,5.09,12.346,11.347v21.834H58.547V96.56C58.547,90.303,64.084,85.213,70.89,85.213
		 M70.89,73.212c-13.444,0-24.343,10.452-24.343,23.347v33.834h48.688V96.56C95.235,83.664,84.337,73.212,70.89,73.212L70.89,73.212
		z"/>
</g>
<ellipse fill="#FFFFFF" cx="52.605" cy="25.685" rx="2.863" ry="2.746"/>
<ellipse cx="70.891" cy="104.118" rx="4.296" ry="4.121"/>
<polygon points="38.281,130.394 11.339,130.394 11.339,11.339 38.281,11.339 38.281,22.962 23.463,22.962 23.463,118.771 
	38.281,118.771 "/>
<polygon points="130.394,130.394 103.451,130.394 103.451,118.771 118.269,118.771 118.269,22.962 103.451,22.962 103.451,11.339 
	130.394,11.339 "/>
</svg>
