<?xml version="1.0" encoding="utf-8"?>
<!-- Generator: Adobe Illustrator 16.0.0, SVG Export Plug-In . SVG Version: 6.00 Build 0)  -->
<!DOCTYPE svg PUBLIC "-//W3C//DTD SVG 1.1//EN" "http://www.w3.org/Graphics/SVG/1.1/DTD/svg11.dtd">
<svg version="1.1" id="Layer_1" xmlns="http://www.w3.org/2000/svg" xmlns:xlink="http://www.w3.org/1999/xlink" x="0px" y="0px"
	 width="48.689px" height="119.055px" viewBox="46.547 11.339 48.689 119.055"
	 enable-background="new 46.547 11.339 48.689 119.055" xml:space="preserve">
<g>
	<path fill="#5AAAB7" d="M83.235,23.339v21.834c0,6.257-5.538,11.347-12.345,11.347c-6.808,0-12.345-5.09-12.345-11.347V23.339
		H83.235 M95.235,11.339H46.547v33.834c0,12.894,10.898,23.347,24.345,23.347c13.445,0,24.345-10.453,24.345-23.347L95.235,11.339
		L95.235,11.339z"/>
</g>
<g>
	<path fill="#5AAAB7" d="M70.89,85.213c6.808,0,12.346,5.09,12.346,11.348v21.834H58.547V96.56
		C58.547,90.302,64.084,85.213,70.89,85.213 M70.89,73.212c-13.444,0-24.344,10.452-24.344,23.348v33.834h48.688V96.56
		C95.235,83.664,84.337,73.212,70.89,73.212L70.89,73.212z"/>
</g>
<ellipse fill="#FFFFFF" cx="52.605" cy="25.685" rx="2.862" ry="2.746"/>
<ellipse fill="#5AAAB7" cx="70.891" cy="104.118" rx="4.296" ry="4.121"/>
</svg>
